<svg id="Layer_1" data-name="Layer 1" xmlns="http://www.w3.org/2000/svg" viewBox="0 0 168.98 57.34"><defs><style>.cls-1{fill:#0b0a0d;}.cls-2{fill:#ed7950;}</style></defs><title>CESIUM_LOGO_comportamentos</title><path class="cls-1" d="M378.31,264.87a2.55,2.55,0,0,0-2.76-2.39h-2.46a2.76,2.76,0,0,0-2.76,2.76v6.49a2.82,2.82,0,0,0,2.76,2.84h2.46c1.53,0,2.76-.67,2.76-2.39h2.39a4.67,4.67,0,0,1-5,4.7h-2.76a5,5,0,0,1-5-5.11v-6.46a5.16,5.16,0,0,1,5.15-5.15h2.46a4.91,4.91,0,0,1,5.15,4.7h-2.39Z" transform="translate(-298.28 -239.22)"/><path class="cls-2" d="M387.34,269.8V272a2.74,2.74,0,0,0,3,2.54h2.57a2.08,2.08,0,0,0,2.28-1.72h2.5a5,5,0,0,1-4.74,4h-2.84A4.94,4.94,0,0,1,385,272v-6.72a5.1,5.1,0,0,1,5.15-5.08h2.54a5.19,5.19,0,0,1,5.19,5.15v4.48H387.34Zm8.1-4.63a2.75,2.75,0,0,0-2.8-2.69h-2.5a2.73,2.73,0,0,0-2.8,2.69v2.35h8.1v-2.35Z" transform="translate(-298.28 -239.22)"/><path class="cls-1" d="M411,276.89h-5.15a3.92,3.92,0,0,1-3.92-4h2.35a1.73,1.73,0,0,0,1.79,1.72h5a1.69,1.69,0,0,0,1.68-1.75v-1.53a1.63,1.63,0,0,0-1.68-1.68H406.3a3.89,3.89,0,0,1-4-4.07v-1.31a4,4,0,0,1,4.14-4.07h3.88a4.17,4.17,0,0,1,4.11,4.11h-2.39a1.79,1.79,0,0,0-1.87-1.79h-3.81a1.63,1.63,0,0,0-1.68,1.68v1.42a1.66,1.66,0,0,0,1.68,1.72h4.82a3.8,3.8,0,0,1,3.88,4v1.49A4,4,0,0,1,411,276.89Z" transform="translate(-298.28 -239.22)"/><path class="cls-1" d="M419.51,256.43v-2.76h2.76v2.76h-2.76Zm0.19,20.23v-16.2h2.39v16.2H419.7Z" transform="translate(-298.28 -239.22)"/><path class="cls-1" d="M429.51,260.46v11.46a2.6,2.6,0,0,0,2.69,2.65H435a2.52,2.52,0,0,0,2.76-2.46V260.46h2.39v16.2H437.8v-1.19a3.94,3.94,0,0,1-3.17,1.42h-2.46a5,5,0,0,1-5-5.08V260.46h2.39Z" transform="translate(-298.28 -239.22)"/><path class="cls-1" d="M452.54,262.48H450a2.56,2.56,0,0,0-2.73,2.54v11.64h-2.39v-16.2h2.39v1.2a4,4,0,0,1,3.14-1.49h2.2a5.71,5.71,0,0,1,3.62,1.9,4.77,4.77,0,0,1,4-1.9h1.94a5,5,0,0,1,5,5v11.46h-2.39V265.2a2.56,2.56,0,0,0-2.54-2.73H460.2a2.64,2.64,0,0,0-2.76,2.65v11.53H455v-11.5A2.7,2.7,0,0,0,452.54,262.48Z" transform="translate(-298.28 -239.22)"/><path class="cls-2" d="M314.06,271.87l-7.23-4.17v-8.34l15.78,9.11v8.34Zm2-28.48,7.23-4.17,24.33,14-24.33,14-15.78-9.11,7.23-4.17,8.55,4.94,9.88-5.7Zm-1.33.76,15.78,9.11-7.23,4.17-8.55-4.94-8.55,4.94-7.23-4.17Zm-16.44,10.26,7.23,4.17v9.88l8.55,4.94v8.34l-15.78-9.11V254.42Zm0,19.75,17.1,9.88v-9.88l7.22,4.17v18.22l-24.33-14v-8.34Zm25.66,22.39V278.34l15.78-9.11v8.34l-8.55,4.94v9.87Zm24.33-14-15.78,9.11v-8.34l15.78-9.11v8.34Zm-7.22-5.7v-7.58L347.6,273Zm7.22-14-24.33,14v-8.34l24.33-14v8.34Z" transform="translate(-298.28 -239.22)"/></svg>